<?xml version="1.0" encoding="UTF-8" standalone="no"?>
<svg
   xmlns:dc="http://purl.org/dc/elements/1.1/"
   xmlns:cc="http://creativecommons.org/ns#"
   xmlns:rdf="http://www.w3.org/1999/02/22-rdf-syntax-ns#"
   xmlns:svg="http://www.w3.org/2000/svg"
   xmlns="http://www.w3.org/2000/svg"
   xmlns:xlink="http://www.w3.org/1999/xlink"
   xmlns:sodipodi="http://sodipodi.sourceforge.net/DTD/sodipodi-0.dtd"
   xmlns:inkscape="http://www.inkscape.org/namespaces/inkscape"
   width="475"
   height="475"
   viewBox="-100 -100 190 190"
   version="1.1"
   id="svg45"
   sodipodi:docname="clock-ticks.svg"
   inkscape:version="0.92.4 (5da689c313, 2019-01-14)">
  <metadata
     id="metadata49">
    <rdf:RDF>
      <cc:Work
         rdf:about="">
        <dc:format>image/svg+xml</dc:format>
        <dc:type
           rdf:resource="http://purl.org/dc/dcmitype/StillImage" />
        <dc:title />
      </cc:Work>
    </rdf:RDF>
  </metadata>
  <sodipodi:namedview
     pagecolor="#ffffff"
     bordercolor="#666666"
     borderopacity="1"
     objecttolerance="10"
     gridtolerance="10"
     guidetolerance="10"
     inkscape:pageopacity="0"
     inkscape:pageshadow="2"
     inkscape:window-width="1920"
     inkscape:window-height="1017"
     id="namedview47"
     showgrid="false"
     inkscape:zoom="0.87087522"
     inkscape:cx="-187.22432"
     inkscape:cy="405.25234"
     inkscape:window-x="-8"
     inkscape:window-y="-8"
     inkscape:window-maximized="1"
     inkscape:current-layer="svg45"
     fit-margin-top="0"
     fit-margin-left="0"
     fit-margin-right="0"
     fit-margin-bottom="0" />
  <defs
     id="defs4">
    <circle
       cx="0"
       cy="87"
       r="2.2"
       id="minMarker"
       style="fill:#000000" />
    <line
       x1="0"
       y1="95"
       x2="0"
       y2="78"
       id="hourMarker"
       style="stroke:#000000;stroke-width:3.79999995" />
    <linearGradient
       x1="14.66"
       y1="7.0243001"
       x2="24.031"
       gradientUnits="userSpaceOnUse"
       y2="34.826"
       id="G3">
      <stop
         offset="0"
         stop-color="#fcf9fb"
         id="s3" />
      <stop
         offset="1"
         stop-opacity="0"
         stop-color="#fcf9fb"
         id="s4" />
    </linearGradient>
    <radialGradient
       fy="32.797306"
       fx="28.935429"
       r="22"
       gradientTransform="matrix(1,-0.2,0.2,1,-3.8,6.8)"
       cx="28.935429"
       cy="32.797306"
       gradientUnits="userSpaceOnUse"
       id="R0-45-7-7">
      <stop
         offset="0"
         stop-color="#e6cf00"
         id="s1-5-6-9" />
      <stop
         offset="1"
         stop-color="#fde94a"
         id="s2-1-1-5" />
    </radialGradient>
  </defs>
  <g
     id="g923">
    <g
       transform="translate(-5,-5)"
       id="markerSet">
      <use
         height="100%"
         width="100%"
         y="0"
         x="0"
         id="use6"
         xlink:href="#hourMarker" />
      <use
         height="100%"
         width="100%"
         y="0"
         x="0"
         id="use8"
         transform="rotate(6)"
         xlink:href="#minMarker" />
      <use
         height="100%"
         width="100%"
         y="0"
         x="0"
         id="use10"
         transform="rotate(12)"
         xlink:href="#minMarker" />
      <use
         height="100%"
         width="100%"
         y="0"
         x="0"
         id="use12"
         transform="rotate(18)"
         xlink:href="#minMarker" />
      <use
         height="100%"
         width="100%"
         y="0"
         x="0"
         id="use14"
         transform="rotate(24)"
         xlink:href="#minMarker" />
    </g>
    <use
       height="100%"
       width="100%"
       y="0"
       x="0"
       id="use17"
       transform="rotate(30,-5,-5)"
       xlink:href="#markerSet" />
    <use
       height="100%"
       width="100%"
       y="0"
       x="0"
       id="use19"
       transform="rotate(60,-5,-5)"
       xlink:href="#markerSet" />
    <use
       height="100%"
       width="100%"
       y="0"
       x="0"
       id="use21"
       transform="rotate(90,-5,-5)"
       xlink:href="#markerSet" />
    <use
       height="100%"
       width="100%"
       y="0"
       x="0"
       id="use23"
       transform="rotate(120,-5,-5)"
       xlink:href="#markerSet" />
    <use
       height="100%"
       width="100%"
       y="0"
       x="0"
       id="use25"
       transform="rotate(150,-5,-5)"
       xlink:href="#markerSet" />
    <use
       height="100%"
       width="100%"
       y="0"
       x="0"
       id="use27"
       transform="rotate(180,-5,-5)"
       xlink:href="#markerSet" />
    <use
       height="100%"
       width="100%"
       y="0"
       x="0"
       id="use29"
       transform="rotate(-150,-5,-5)"
       xlink:href="#markerSet" />
    <use
       height="100%"
       width="100%"
       y="0"
       x="0"
       id="use31"
       transform="rotate(-120,-5,-5)"
       xlink:href="#markerSet" />
    <use
       height="100%"
       width="100%"
       y="0"
       x="0"
       id="use33"
       transform="rotate(-90,-5,-5)"
       xlink:href="#markerSet" />
    <use
       height="100%"
       width="100%"
       y="0"
       x="0"
       id="use35"
       transform="rotate(-60,-5,-5)"
       xlink:href="#markerSet" />
    <use
       height="100%"
       width="100%"
       y="0"
       x="0"
       id="use37"
       transform="rotate(-30,-5,-5)"
       xlink:href="#markerSet" />
  </g>
  <g
     aria-label=" "
     transform="matrix(2.4609117,0,0,2.4609117,-58.017835,-65.248446)"
     style="font-style:normal;font-variant:normal;font-weight:normal;font-stretch:normal;font-size:8.66887379px;line-height:0.01%;font-family:'MV Boli';-inkscape-font-specification:'MV Boli, Normal';font-variant-ligatures:normal;font-variant-caps:normal;font-variant-numeric:normal;font-feature-settings:normal;text-align:center;letter-spacing:2.72000003px;word-spacing:0px;writing-mode:lr-tb;text-anchor:middle;fill:#000000;fill-opacity:1;stroke:none;stroke-width:1px;stroke-linecap:butt;stroke-linejoin:miter;stroke-opacity:1"
     id="flowRoot3379" />
  <g
     aria-label="7"
     style="font-style:normal;font-variant:normal;font-weight:normal;font-stretch:normal;font-size:21.33333397px;line-height:1.25;font-family:'MV Boli';-inkscape-font-specification:'MV Boli, Normal';font-variant-ligatures:normal;font-variant-caps:normal;font-variant-numeric:normal;font-feature-settings:normal;text-align:center;letter-spacing:0px;word-spacing:0px;writing-mode:lr-tb;text-anchor:middle;fill:#f88a26;fill-opacity:1;stroke:none;stroke-width:0.40000001"
     id="text989">
    <path
       d="m -33.004804,44.390105 h -7.833333 q -0.458334,0 -0.729167,-0.28125 -0.270833,-0.28125 -0.270833,-0.697917 0,-0.354167 0.208333,-0.59375 0.21875,-0.239584 0.572917,-0.239584 l 7.302083,0.08333 2.625,-0.08333 q 0.979167,0 0.979167,0.739584 0,0.270833 -0.385417,0.729167 -2.739583,3.010416 -5.145833,6.666666 -2.40625,3.645834 -3.53125,6.260417 -0.21875,0.489584 -0.53125,0.739584 -0.3125,0.239583 -0.708334,0.239583 -1.020833,0 -1.020833,-0.9375 0,-0.260417 0.177083,-0.864583 0.1875,-0.604167 1.96875,-3.375001 1.791667,-2.770833 3.4375,-4.90625 1.645834,-2.145833 2.885417,-3.479166 z"
       style="font-style:normal;font-variant:normal;font-weight:normal;font-stretch:normal;font-size:21.33333397px;font-family:'MV Boli';-inkscape-font-specification:'MV Boli, Normal';font-variant-ligatures:normal;font-variant-caps:normal;font-variant-numeric:normal;font-feature-settings:normal;text-align:center;writing-mode:lr-tb;text-anchor:middle;fill:#f88a26;fill-opacity:1;stroke-width:0.40000001"
       id="path907" />
  </g>
  <g
     aria-label="6"
     style="font-style:normal;font-variant:normal;font-weight:normal;font-stretch:normal;font-size:21.33333397px;line-height:1.25;font-family:'MV Boli';-inkscape-font-specification:'MV Boli, Normal';font-variant-ligatures:normal;font-variant-caps:normal;font-variant-numeric:normal;font-feature-settings:normal;text-align:center;letter-spacing:0px;word-spacing:0px;writing-mode:lr-tb;text-anchor:middle;fill:#e7b5da;fill-opacity:1;stroke:none;stroke-width:0.40000001"
     id="text985">
    <path
       d="m -7.2312316,56.199557 q 2.3125001,-1.427084 4.0729168,-1.427084 2.15625,0 3.44791675,1.145834 1.29166675,1.145833 1.29166675,3.114583 0,2.072917 -2.02083344,3.677084 -2.02083336,1.59375 -4.33333346,1.59375 -2.3437501,0 -3.7708334,-1.375 -1.4166668,-1.385417 -1.4166668,-3.510417 0,-2.197917 1.3333334,-4.75 1.3333334,-2.552084 3.4791668,-4.125 2.1562501,-1.572917 4.51041679,-1.572917 1.2916667,0 2.56250011,0.697917 1.28125,0.6875 1.28125,1.479166 0,1.041667 -0.9270834,1.041667 -0.6041666,0 -1.29166666,-0.729167 -0.28125001,-0.291666 -0.87500003,-0.489583 -0.59375002,-0.208333 -1.15625001,-0.208333 -1.7500001,0 -3.3333335,1.385416 -1.5833333,1.385417 -2.8541667,4.052084 z m 3.8645834,0.34375 q -0.8958333,0 -1.7708333,0.28125 -0.8750001,0.28125 -1.7500001,0.854166 -0.8645834,0.5625 -0.9583334,0.927084 -0.09375,0.364583 -0.09375,0.8125 0,1.4375 0.8437501,2.270833 0.84375,0.822917 2.3229167,0.822917 1.6041667,0 2.9583334,-1.0625 1.36458339,-1.0625 1.36458339,-2.416667 0,-2.489583 -2.91666679,-2.489583 z"
       style="font-style:normal;font-variant:normal;font-weight:normal;font-stretch:normal;font-size:21.33333397px;font-family:'MV Boli';-inkscape-font-specification:'MV Boli, Normal';font-variant-ligatures:normal;font-variant-caps:normal;font-variant-numeric:normal;font-feature-settings:normal;text-align:center;writing-mode:lr-tb;text-anchor:middle;fill:#e7b5da;fill-opacity:1;stroke-width:0.40000001"
       id="path904" />
  </g>
  <g
     aria-label="5"
     style="font-style:normal;font-variant:normal;font-weight:normal;font-stretch:normal;font-size:21.33333397px;line-height:1.25;font-family:'MV Boli';-inkscape-font-specification:'MV Boli, Normal';font-variant-ligatures:normal;font-variant-caps:normal;font-variant-numeric:normal;font-feature-settings:normal;text-align:center;letter-spacing:0px;word-spacing:0px;writing-mode:lr-tb;text-anchor:middle;fill:#6ba300;fill-opacity:1;stroke:none;stroke-width:0.40000001"
     id="text981">
    <path
       d="m 23.996238,46.312315 q 1.4375,-0.65625 3.052083,-0.65625 2.145834,0 3.468751,1.291667 1.333333,1.291667 1.333333,2.989583 0,2.489584 -1.895833,4.093751 -1.885417,1.604166 -5.104167,1.604166 -2.177084,0 -3.697917,-1.072916 -1.510417,-1.072917 -1.510417,-2.166667 0,-0.46875 0.260417,-0.833333 0.260417,-0.364584 0.635417,-0.364584 0.770833,0 0.916666,0.40625 0.895834,2.21875 3.822917,2.21875 2,0 3.270833,-1.15625 1.270834,-1.166666 1.270834,-2.53125 0,-1.197917 -0.770833,-1.927083 -0.760417,-0.739584 -2.427084,-0.739584 -0.84375,0 -2.135417,0.40625 -1.052083,0.333334 -1.625,0.333334 -0.34375,0 -0.604166,-0.260417 -0.25,-0.260417 -0.25,-0.635417 0,-0.614583 0.510416,-2.291666 0.520834,-1.6875 0.916667,-2.489584 0.40625,-0.802083 0.791667,-1.21875 0.395833,-0.416666 0.697916,-0.5 0.302084,-0.09375 3.0625,-0.28125 2.770834,-0.1875 4.885417,-0.1875 0.375,0 0.5625,0.145834 0.1875,0.135416 0.1875,0.572916 0,0.53125 -0.333333,0.854167 -0.333333,0.322917 -0.885417,0.322917 -3.958333,0 -7.020833,0.28125 -0.822917,1.697916 -1.385417,3.791666 z"
       style="font-style:normal;font-variant:normal;font-weight:normal;font-stretch:normal;font-size:21.33333397px;font-family:'MV Boli';-inkscape-font-specification:'MV Boli, Normal';font-variant-ligatures:normal;font-variant-caps:normal;font-variant-numeric:normal;font-feature-settings:normal;text-align:center;writing-mode:lr-tb;text-anchor:middle;fill:#6ba300;fill-opacity:1;stroke-width:0.40000001"
       id="path901" />
  </g>
  <g
     aria-label="4"
     style="font-style:normal;font-variant:normal;font-weight:normal;font-stretch:normal;font-size:21.33333397px;line-height:1.25;font-family:'MV Boli';-inkscape-font-specification:'MV Boli, Normal';font-variant-ligatures:normal;font-variant-caps:normal;font-variant-numeric:normal;font-feature-settings:normal;text-align:center;letter-spacing:0px;word-spacing:0px;writing-mode:lr-tb;text-anchor:middle;fill:#009bb6;fill-opacity:1;stroke:none;stroke-width:0.40000001"
     id="text977">
    <path
       d="m 53.065815,25.306216 q 1.729167,-0.05208 2.135417,-0.05208 0.375,0 0.552083,0.145834 0.1875,0.135416 0.1875,0.5625 0,0.53125 -0.322916,0.84375 -0.322917,0.3125 -0.885417,0.3125 -1.46875,0 -2.28125,0.02083 -0.9375,2.770833 -1.145834,4.135417 -0.177083,1.125 -0.375,1.489583 -0.197916,0.364584 -0.854166,0.364584 -0.447917,0 -0.697917,-0.291667 -0.239583,-0.302083 -0.239583,-0.791667 0,-1.052083 1.364583,-4.864583 -5.010417,0.125 -5.947917,0.125 -0.5,0 -0.854167,-0.375 -0.34375,-0.375 -0.34375,-0.84375 0,-0.552084 1.187501,-2.572917 1.1875,-2.03125 2.729166,-3.697917 1.541667,-1.666667 2.4375,-1.666667 0.875,0 0.875,0.541667 0,0.364584 -0.510416,0.71875 -1.375,0.947917 -2.8125,3.135417 -1.427084,2.177083 -1.6875,2.989583 0.895833,0 5.59375,-0.166666 1.166666,-3.135417 1.927083,-4.8125 0.770833,-1.677084 1.15625,-2.197917 0.385417,-0.520834 0.90625,-0.520834 0.552084,0 0.552084,0.59375 0,0.34375 -0.479167,1.364584 -0.46875,1.010417 -1,2.395833 z"
       style="font-style:normal;font-variant:normal;font-weight:normal;font-stretch:normal;font-size:21.33333397px;font-family:'MV Boli';-inkscape-font-specification:'MV Boli, Normal';font-variant-ligatures:normal;font-variant-caps:normal;font-variant-numeric:normal;font-feature-settings:normal;text-align:center;writing-mode:lr-tb;text-anchor:middle;fill:#009bb6;fill-opacity:1;stroke-width:0.40000001"
       id="path898" />
  </g>
  <g
     aria-label="3"
     style="font-style:normal;font-variant:normal;font-weight:normal;font-stretch:normal;font-size:21.33333397px;line-height:1.25;font-family:'MV Boli';-inkscape-font-specification:'MV Boli, Normal';font-variant-ligatures:normal;font-variant-caps:normal;font-variant-numeric:normal;font-feature-settings:normal;text-align:center;letter-spacing:0px;word-spacing:0px;writing-mode:lr-tb;text-anchor:middle;fill:#0000ea;fill-opacity:1;stroke:none;stroke-width:0.40000001"
     id="text973">
    <path
       d="m 62.055363,-7.7056304 q 0.875,0.3645833 1.416667,1.1979167 0.552083,0.8333333 0.552083,1.65625 0,2.1875001 -1.697917,3.5625001 -1.6875,1.3645834 -4.385417,1.3645834 -2.104166,0 -3.885416,-1.05208336 -1.770834,-1.05208334 -1.770834,-2.20833344 0,-0.40625 0.28125,-0.7291666 0.28125,-0.3229167 0.65625,-0.3229167 0.697917,0 0.916667,0.4270833 1.177083,2.0937501 3.885417,2.0937501 1.895833,0 2.927083,-0.84375 1.041667,-0.8541667 1.041667,-2.1458334 0,-0.6666667 -0.416667,-1.1458334 -0.40625,-0.4791667 -0.979167,-0.65625 -0.572916,-0.1770834 -2.104166,-0.1770834 -0.40625,0 -0.65625,-0.2708333 -0.239584,-0.28125 -0.239584,-0.6458334 0,-0.3333333 0.302084,-0.6041666 0.3125,-0.2708334 0.854166,-0.2708334 0.416667,0 0.791667,0.020833 l 0.739583,0.0625 q 0.166667,0 1.083334,-0.375 0.927083,-0.3854166 1.447916,-1 0.520834,-0.6250005 0.520834,-1.4375005 0,-0.9375 -0.8125,-1.5625 -0.802084,-0.635416 -2.135417,-0.635416 -2.291667,0 -3.489583,1.59375 -0.322917,0.447916 -0.833334,0.447916 -0.395833,0 -0.65625,-0.239583 -0.260416,-0.239583 -0.260416,-0.635417 0,-0.927083 1.677083,-1.9375 1.677083,-1.020833 3.802083,-1.020833 2.020834,0 3.375001,1.09375 1.364583,1.09375 1.364583,2.71875 0,1.239583 -0.864583,2.2187502 -0.864584,0.96875 -2.447917,1.4583334 z"
       style="font-style:normal;font-variant:normal;font-weight:normal;font-stretch:normal;font-size:21.33333397px;font-family:'MV Boli';-inkscape-font-specification:'MV Boli, Normal';font-variant-ligatures:normal;font-variant-caps:normal;font-variant-numeric:normal;font-feature-settings:normal;text-align:center;writing-mode:lr-tb;text-anchor:middle;fill:#0000ea;fill-opacity:1;stroke-width:0.40000001"
       id="path895" />
  </g>
  <g
     aria-label="2"
     style="font-style:normal;font-variant:normal;font-weight:normal;font-stretch:normal;font-size:21.33333397px;line-height:1.25;font-family:'MV Boli';-inkscape-font-specification:'MV Boli, Normal';font-variant-ligatures:normal;font-variant-caps:normal;font-variant-numeric:normal;font-feature-settings:normal;text-align:center;letter-spacing:0px;word-spacing:0px;writing-mode:lr-tb;text-anchor:middle;fill:#ece100;fill-opacity:1;stroke:none;stroke-width:0.40000001"
     id="text969">
    <path
       d="m 47.339958,-34.738387 q 0.645833,-0.04167 0.989583,-0.04167 0.875,0 2.916667,0.1875 2.052084,0.177084 3.125,0.354167 1.072917,0.166667 1.333334,0.333333 0.260416,0.156251 0.416666,0.437501 0.15625,0.270833 0.15625,0.583333 0,0.260417 -0.395833,0.53125 -0.385417,0.28125 -0.729167,0.28125 -0.40625,0 -1.239583,-0.197917 -1.40625,-0.34375 -3.375,-0.520833 -1.958334,-0.177083 -3.645834,-0.177083 -0.75,0 -1.552083,0.229166 -0.447917,0.15625 -0.875,0.15625 -0.260417,0 -0.458333,-0.15625 -0.1875,-0.15625 -0.1875,-0.427083 0,-0.958334 1.479166,-2.322917 1.489584,-1.375 4.1875,-2.760417 3.302084,-1.697916 4.364584,-2.84375 1.0625,-1.145833 1.0625,-2.25 0,-1.010416 -0.791667,-1.75 -0.78125,-0.739583 -1.958333,-0.739583 -1.083333,0 -2,0.364583 -0.916667,0.364583 -1.78125,1.333334 -0.354167,0.395833 -0.65625,0.395833 -0.375,0 -0.677084,-0.260417 -0.302083,-0.270833 -0.302083,-0.614583 0,-1.0625 1.677083,-2.03125 1.687501,-0.979167 3.958334,-0.979167 1.947917,0 3.25,1.177083 1.3125,1.177084 1.3125,3.041667 0,1.854167 -1.427083,3.416667 -1.416667,1.552083 -5.3125,3.416667 -1.666667,0.802083 -2.864584,1.833333 z"
       style="font-style:normal;font-variant:normal;font-weight:normal;font-stretch:normal;font-size:21.33333397px;font-family:'MV Boli';-inkscape-font-specification:'MV Boli, Normal';font-variant-ligatures:normal;font-variant-caps:normal;font-variant-numeric:normal;font-feature-settings:normal;text-align:center;writing-mode:lr-tb;text-anchor:middle;fill:#ece100;fill-opacity:1;stroke-width:0.40000001"
       id="path892" />
  </g>
  <g
     aria-label="1"
     style="font-style:normal;font-variant:normal;font-weight:normal;font-stretch:normal;font-size:21.33333397px;line-height:1.25;font-family:'MV Boli';-inkscape-font-specification:'MV Boli, Normal';font-variant-ligatures:normal;font-variant-caps:normal;font-variant-numeric:normal;font-feature-settings:normal;text-align:center;letter-spacing:0px;word-spacing:0px;writing-mode:lr-tb;text-anchor:middle;fill:#00bb00;fill-opacity:1;stroke:none;stroke-width:0.40000001"
     id="text965">
    <path
       d="m 29.660584,-67.758979 q -0.291666,0.09375 -1.135416,0.416667 -1.843751,0.697916 -2.312501,0.697916 -0.322916,0 -0.5,-0.1875 -0.166666,-0.197916 -0.166666,-0.458333 0,-0.729167 0.65625,-1.104167 0.65625,-0.375 2.729167,-0.885416 2.072916,-0.520834 2.5,-0.520834 0.645833,0 0.645833,0.59375 0,0.427084 -0.447917,1.197917 -1.0625,1.8125 -2.572916,5.979167 -1.510417,4.15625 -1.864584,6.708333 -0.05208,0.395834 -0.364583,0.604167 -0.302084,0.208333 -0.708334,0.208333 -0.916666,0 -0.916666,-0.833333 0,-1.364583 1.510416,-5.635417 1.510417,-4.270833 2.947917,-6.78125 z"
       style="font-style:normal;font-variant:normal;font-weight:normal;font-stretch:normal;font-size:21.33333397px;font-family:'MV Boli';-inkscape-font-specification:'MV Boli, Normal';font-variant-ligatures:normal;font-variant-caps:normal;font-variant-numeric:normal;font-feature-settings:normal;text-align:center;writing-mode:lr-tb;text-anchor:middle;fill:#00bb00;fill-opacity:1;stroke-width:0.40000001"
       id="path889" />
  </g>
  <g
     aria-label="12"
     style="font-style:normal;font-variant:normal;font-weight:normal;font-stretch:normal;font-size:21.33333397px;line-height:1.25;font-family:'MV Boli';-inkscape-font-specification:'MV Boli, Normal';font-variant-ligatures:normal;font-variant-caps:normal;font-variant-numeric:normal;font-feature-settings:normal;text-align:center;letter-spacing:0px;word-spacing:0px;writing-mode:lr-tb;text-anchor:middle;fill:#c10000;fill-opacity:1;stroke:none;stroke-width:0.40000001"
     id="text961">
    <path
       d="m -10.499041,-75.701243 q -0.291667,0.09375 -1.135417,0.416666 -1.84375,0.697917 -2.3125,0.697917 -0.322917,0 -0.5,-0.1875 -0.166667,-0.197917 -0.166667,-0.458333 0,-0.729167 0.656251,-1.104167 0.65625,-0.375 2.729166,-0.885417 2.072917,-0.520833 2.5000003,-0.520833 0.6458334,0 0.6458334,0.59375 0,0.427083 -0.4479167,1.197917 -1.0625,1.8125 -2.572917,5.979166 -1.510416,4.15625 -1.864583,6.708334 -0.05208,0.395833 -0.364583,0.604167 -0.302084,0.208333 -0.708334,0.208333 -0.916667,0 -0.916667,-0.833333 0,-1.364584 1.510417,-5.635417 1.510417,-4.270834 2.947917,-6.78125 z"
       style="font-style:normal;font-variant:normal;font-weight:normal;font-stretch:normal;font-size:21.33333397px;font-family:'MV Boli';-inkscape-font-specification:'MV Boli, Normal';font-variant-ligatures:normal;font-variant-caps:normal;font-variant-numeric:normal;font-feature-settings:normal;text-align:center;writing-mode:lr-tb;text-anchor:middle;fill:#c10000;fill-opacity:1;stroke-width:0.40000001"
       id="path884" />
    <path
       d="m -4.5407078,-64.857493 q 0.6458333,-0.04167 0.9895834,-0.04167 0.875,0 2.91666671,0.1875 2.05208339,0.177084 3.12500009,0.354167 1.0729167,0.166667 1.3333334,0.333333 0.2604167,0.15625 0.4166667,0.4375 0.15625,0.270834 0.15625,0.583334 0,0.260416 -0.3958334,0.53125 -0.3854167,0.28125 -0.7291667,0.28125 -0.40625,0 -1.2395833,-0.197917 -1.40625008,-0.34375 -3.3750001,-0.520833 -1.9583334,-0.177084 -3.6458335,-0.177084 -0.75,0 -1.5520834,0.229167 -0.4479166,0.15625 -0.875,0.15625 -0.2604167,0 -0.4583333,-0.15625 -0.1875,-0.15625 -0.1875,-0.427083 0,-0.958334 1.4791667,-2.322917 1.4895833,-1.375 4.1875001,-2.760417 3.30208342,-1.697917 4.3645835,-2.84375 1.0625,-1.145833 1.0625,-2.25 0,-1.010417 -0.7916667,-1.75 -0.78125,-0.739583 -1.95833339,-0.739583 -1.08333337,0 -2.00000011,0.364583 -0.9166666,0.364583 -1.78125,1.333333 -0.3541667,0.395834 -0.65625,0.395834 -0.375,0 -0.6770834,-0.260417 -0.3020833,-0.270833 -0.3020833,-0.614583 0,-1.0625 1.6770834,-2.031251 1.6875,-0.979166 3.95833341,-0.979166 1.94791669,0 3.25000009,1.177083 1.3125,1.177084 1.3125,3.041667 0,1.854167 -1.4270833,3.416667 -1.4166667,1.552083 -5.3125002,3.416666 -1.6666667,0.802084 -2.8645834,1.833334 z"
       style="font-style:normal;font-variant:normal;font-weight:normal;font-stretch:normal;font-size:21.33333397px;font-family:'MV Boli';-inkscape-font-specification:'MV Boli, Normal';font-variant-ligatures:normal;font-variant-caps:normal;font-variant-numeric:normal;font-feature-settings:normal;text-align:center;writing-mode:lr-tb;text-anchor:middle;fill:#c10000;fill-opacity:1;stroke-width:0.40000001"
       id="path886" />
  </g>
  <g
     aria-label="11"
     style="font-style:normal;font-variant:normal;font-weight:normal;font-stretch:normal;font-size:21.33333397px;line-height:1.25;font-family:'MV Boli';-inkscape-font-specification:'MV Boli, Normal';font-variant-ligatures:normal;font-variant-caps:normal;font-variant-numeric:normal;font-feature-settings:normal;text-align:center;letter-spacing:0px;word-spacing:0px;writing-mode:lr-tb;text-anchor:middle;fill:#b100ff;fill-opacity:1;stroke:none;stroke-width:0.40000001"
     id="text1005">
    <path
       d="m -39.795499,-69.22663 q -0.291667,0.09375 -1.135417,0.416666 -1.84375,0.697917 -2.3125,0.697917 -0.322917,0 -0.5,-0.1875 -0.166667,-0.197917 -0.166667,-0.458333 0,-0.729167 0.65625,-1.104167 0.65625,-0.375 2.729167,-0.885417 2.072917,-0.520833 2.5,-0.520833 0.645834,0 0.645834,0.59375 0,0.427083 -0.447917,1.197917 -1.0625,1.8125 -2.572917,5.979167 -1.510417,4.15625 -1.864583,6.708333 -0.05208,0.395833 -0.364584,0.604167 -0.302083,0.208333 -0.708333,0.208333 -0.916667,0 -0.916667,-0.833333 0,-1.364584 1.510417,-5.635417 1.510417,-4.270834 2.947917,-6.78125 z"
       style="font-style:normal;font-variant:normal;font-weight:normal;font-stretch:normal;font-size:21.33333397px;font-family:'MV Boli';-inkscape-font-specification:'MV Boli, Normal';font-variant-ligatures:normal;font-variant-caps:normal;font-variant-numeric:normal;font-feature-settings:normal;text-align:center;writing-mode:lr-tb;text-anchor:middle;fill:#b100ff;fill-opacity:1;stroke-width:0.40000001"
       id="path879" />
    <path
       d="m -31.170499,-69.22663 q -0.291667,0.09375 -1.135417,0.416666 -1.84375,0.697917 -2.3125,0.697917 -0.322917,0 -0.5,-0.1875 -0.166667,-0.197917 -0.166667,-0.458333 0,-0.729167 0.65625,-1.104167 0.65625,-0.375 2.729167,-0.885417 2.072917,-0.520833 2.5,-0.520833 0.645834,0 0.645834,0.59375 0,0.427083 -0.447917,1.197917 -1.0625,1.8125 -2.572917,5.979167 -1.510417,4.15625 -1.864583,6.708333 -0.05208,0.395833 -0.364584,0.604167 -0.302083,0.208333 -0.708333,0.208333 -0.916667,0 -0.916667,-0.833333 0,-1.364584 1.510417,-5.635417 1.510417,-4.270834 2.947917,-6.78125 z"
       style="font-style:normal;font-variant:normal;font-weight:normal;font-stretch:normal;font-size:21.33333397px;font-family:'MV Boli';-inkscape-font-specification:'MV Boli, Normal';font-variant-ligatures:normal;font-variant-caps:normal;font-variant-numeric:normal;font-feature-settings:normal;text-align:center;writing-mode:lr-tb;text-anchor:middle;fill:#b100ff;fill-opacity:1;stroke-width:0.40000001"
       id="path881" />
  </g>
  <g
     aria-label="8"
     style="font-style:normal;font-variant:normal;font-weight:normal;font-stretch:normal;font-size:21.33333397px;line-height:1.25;font-family:'MV Boli';-inkscape-font-specification:'MV Boli, Normal';font-variant-ligatures:normal;font-variant-caps:normal;font-variant-numeric:normal;font-feature-settings:normal;text-align:center;letter-spacing:0px;word-spacing:0px;writing-mode:lr-tb;text-anchor:middle;fill:#f400d8;fill-opacity:1;stroke:none;stroke-width:0.40000001"
     id="text993">
    <path
       d="m -59.3234,24.660382 q 3.229167,2.125 3.229167,4.072917 0,1.177083 -0.875,2.1875 -0.864583,1.010417 -2.333333,1.614584 -1.458334,0.59375 -2.854167,0.59375 -2.135417,0 -3.541667,-1.072917 -1.40625,-1.072917 -1.40625,-2.572917 0,-1.5 1.020833,-2.614583 1.020834,-1.125 3.416667,-2.395834 -1.21875,-1.104166 -1.21875,-2.625 0,-1.729166 1.59375,-2.885416 1.604167,-1.166667 3.84375,-1.166667 1.635417,0 2.96875,0.802083 1.333334,0.802084 1.875,2.21875 0.458334,-0.04167 0.6875,-0.04167 0.635417,0 0.635417,0.708333 0,1.302083 -1.552083,1.302083 -1.46875,0 -5.489584,1.875 z m -1.59375,-1.0625 q 2.59375,-1.21875 5.5,-2.239583 -0.583333,-1.770833 -3.197916,-1.770833 -1.28125,0 -2.270834,0.6875 -0.989583,0.6875 -0.989583,1.572916 0,1.03125 0.958333,1.75 z m -0.21875,1.958334 q -2.010417,1.020833 -2.979167,1.96875 -0.958333,0.947916 -0.958333,1.958333 0,0.697917 0.708333,1.28125 0.708334,0.572917 2.208334,0.572917 1.614583,0 2.822917,-0.78125 1.208333,-0.791667 1.208333,-1.822917 0,-0.8125 -0.6875,-1.489583 -0.677083,-0.677084 -2.322917,-1.6875 z"
       style="font-style:normal;font-variant:normal;font-weight:normal;font-stretch:normal;font-size:21.33333397px;font-family:'MV Boli';-inkscape-font-specification:'MV Boli, Normal';font-variant-ligatures:normal;font-variant-caps:normal;font-variant-numeric:normal;font-feature-settings:normal;text-align:center;writing-mode:lr-tb;text-anchor:middle;fill:#f400d8;fill-opacity:1;stroke-width:0.40000001"
       id="path876" />
  </g>
  <g
     aria-label="9"
     style="font-style:normal;font-variant:normal;font-weight:normal;font-stretch:normal;font-size:21.33333397px;line-height:1.25;font-family:'MV Boli';-inkscape-font-specification:'MV Boli, Normal';font-variant-ligatures:normal;font-variant-caps:normal;font-variant-numeric:normal;font-feature-settings:normal;text-align:center;letter-spacing:0px;word-spacing:0px;writing-mode:lr-tb;text-anchor:middle;fill:#fe0004;fill-opacity:1;stroke:none;stroke-width:0.40000001"
     id="text997">
    <path
       d="m -66.406369,-5.604782 q -0.71875,0.5833333 -1.708334,0.9375 -0.989583,0.34375 -1.854167,0.34375 -2.0625,0 -3.416666,-1.1979167 -1.354167,-1.2083334 -1.354167,-3.0833334 0,-2.0312499 1.854167,-3.6458339 1.864583,-1.625 4.4375,-1.625 2.260417,0 3.59375,1.260417 1.333333,1.25 1.333333,3.3020835 0,2.3125001 -1.302083,4.9479168 -1.302083,2.6354168 -3.46875,4.22916683 -2.15625,1.59375007 -4.697917,1.59375007 -1.072917,0 -1.78125,-0.3229167 -0.697917,-0.32291668 -0.697917,-0.84375002 0,-0.43750002 0.239584,-0.69791669 0.239583,-0.27083334 0.635416,-0.27083334 0.34375,0 0.989584,0.1875 0.5625,0.15625001 0.822916,0.15625001 1.697917,0 3.541667,-1.46875006 1.84375,-1.46875 2.833334,-3.8020834 z m -3.343751,-0.4895834 q 0.322917,0 0.656251,-0.052083 0.333333,-0.052083 0.666666,-0.15625 0.333334,-0.1145834 0.645834,-0.2708334 0.322916,-0.15625 0.625,-0.34375 0.302083,-0.1979166 0.572916,-0.4375 0.28125,-0.2395833 0.59375,-0.6041667 0.322917,-0.3645833 0.375,-0.75 0.0625,-0.3854167 0.0625,-0.6041667 0,-2.7708335 -2.895833,-2.7708335 -1.895834,0 -3.083334,1.083333 -1.1875,1.0833338 -1.1875,2.3958339 0,1.1666667 0.833334,1.84375 0.833333,0.6666667 2.135416,0.6666667 z"
       style="font-style:normal;font-variant:normal;font-weight:normal;font-stretch:normal;font-size:21.33333397px;font-family:'MV Boli';-inkscape-font-specification:'MV Boli, Normal';font-variant-ligatures:normal;font-variant-caps:normal;font-variant-numeric:normal;font-feature-settings:normal;text-align:center;writing-mode:lr-tb;text-anchor:middle;fill:#fe0004;fill-opacity:1;stroke-width:0.40000001"
       id="path873" />
  </g>
  <g
     aria-label="10"
     style="font-style:normal;font-variant:normal;font-weight:normal;font-stretch:normal;font-size:21.33333397px;line-height:1.25;font-family:'MV Boli';-inkscape-font-specification:'MV Boli, Normal';font-variant-ligatures:normal;font-variant-caps:normal;font-variant-numeric:normal;font-feature-settings:normal;text-align:center;letter-spacing:0px;word-spacing:0px;writing-mode:lr-tb;text-anchor:middle;fill:#00dfbd;fill-opacity:1;stroke:none;stroke-width:0.40000001"
     id="text1001">
    <path
       d="m -61.814622,-43.964686 q -0.291667,0.09375 -1.135417,0.416666 -1.84375,0.697917 -2.3125,0.697917 -0.322917,0 -0.5,-0.1875 -0.166667,-0.197917 -0.166667,-0.458333 0,-0.729167 0.65625,-1.104167 0.65625,-0.375 2.729167,-0.885417 2.072917,-0.520833 2.5,-0.520833 0.645833,0 0.645833,0.59375 0,0.427083 -0.447916,1.197917 -1.0625,1.8125 -2.572917,5.979166 -1.510417,4.15625 -1.864583,6.708334 -0.05208,0.395833 -0.364584,0.604167 -0.302083,0.208333 -0.708333,0.208333 -0.916667,0 -0.916667,-0.833333 0,-1.364584 1.510417,-5.635417 1.510417,-4.270834 2.947917,-6.78125 z"
       style="font-style:normal;font-variant:normal;font-weight:normal;font-stretch:normal;font-size:21.33333397px;font-family:'MV Boli';-inkscape-font-specification:'MV Boli, Normal';font-variant-ligatures:normal;font-variant-caps:normal;font-variant-numeric:normal;font-feature-settings:normal;text-align:center;writing-mode:lr-tb;text-anchor:middle;fill:#00dfbd;fill-opacity:1;stroke-width:0.40000001"
       id="path868" />
    <path
       d="m -44.991705,-41.183436 q 0,2.302083 -1.322917,4.8125 -1.3125,2.5 -3.354167,4.083333 -2.041667,1.572917 -3.989583,1.572917 -2.020834,0 -3.260417,-1.34375 -1.239584,-1.354167 -1.239584,-3.729167 0,-2.270833 1.375001,-4.708333 1.385416,-2.4375 3.5,-3.989584 2.125,-1.5625 4,-1.5625 2,0 3.145833,1.302084 1.145834,1.302083 1.145834,3.5625 z m -11.135417,5.645833 q 0,1.333333 0.697916,2.1875 0.708334,0.84375 1.8125,0.84375 1.46875,0 3.010417,-1.364583 1.552083,-1.375 2.5625,-3.53125 1.020833,-2.15625 1.020833,-4.0625 0,-1.34375 -0.59375,-2.0625 -0.583333,-0.729167 -1.6875,-0.729167 -1.520833,0 -3.135416,1.322917 -1.604167,1.3125 -2.645834,3.40625 -1.041666,2.083333 -1.041666,3.989583 z"
       style="font-style:normal;font-variant:normal;font-weight:normal;font-stretch:normal;font-size:21.33333397px;font-family:'MV Boli';-inkscape-font-specification:'MV Boli, Normal';font-variant-ligatures:normal;font-variant-caps:normal;font-variant-numeric:normal;font-feature-settings:normal;text-align:center;writing-mode:lr-tb;text-anchor:middle;fill:#00dfbd;fill-opacity:1;stroke-width:0.40000001"
       id="path870" />
  </g>
</svg>
